<?xml version="1.0" encoding="utf-8"?>
<!-- Generator: Adobe Illustrator 27.5.0, SVG Export Plug-In . SVG Version: 6.00 Build 0)  -->
<svg version="1.1" xmlns="http://www.w3.org/2000/svg" xmlns:xlink="http://www.w3.org/1999/xlink" x="0px" y="0px"
	 viewBox="0 0 500 500" style="enable-background:new 0 0 500 500;" xml:space="preserve">
<g id="BACKGROUND">
	<radialGradient id="SVGID_1_" cx="249.9602" cy="249.9999" r="353.5499" gradientUnits="userSpaceOnUse">
		<stop  offset="0" style="stop-color:#00C0B3"/>
		<stop  offset="1" style="stop-color:#08827A"/>
	</radialGradient>
	<rect x="-0.04" style="fill-rule:evenodd;clip-rule:evenodd;fill:url(#SVGID_1_);" width="500" height="500"/>
</g>
<g id="OBJECTS">
	<g>
		<ellipse style="opacity:0.2;fill-rule:evenodd;clip-rule:evenodd;" cx="248.826" cy="381.913" rx="154.409" ry="9.78"/>
		<path style="fill-rule:evenodd;clip-rule:evenodd;fill:#FF8D3B;" d="M167.001,216.279c17.999-76.036,159.89-67.381,164.35,3.945
			C333.634,256.733,155.388,265.34,167.001,216.279z"/>
		<g>
			<path style="fill-rule:evenodd;clip-rule:evenodd;fill:#FFAA3B;" d="M359.561,231.072c40.773,10.217,73.583-46.008,38.755-69.359
				c-9.612-6.444-6.517-13.185,3.521-7.444c63.911,36.549-4.148,123.801-66.701,100.14
				C310.474,245.079,323.603,222.06,359.561,231.072z"/>
			<path style="fill-rule:evenodd;clip-rule:evenodd;fill:#FF8D3B;" d="M397.822,152.49c1.171,0.343,2.515,0.92,4.016,1.778
				c63.911,36.549-4.148,123.801-66.701,100.14c-7.772-2.94-11.787-7.239-12.522-11.467c37.964,10.303,74.36,5.772,93.063-30.275
				c10.436-20.112,6.682-36.9-9.098-49.74C401.236,158.578,396.579,154.769,397.822,152.49z"/>
			<path style="fill-rule:evenodd;clip-rule:evenodd;fill:#FFAA3B;" d="M367.696,253.666c0.004,1.851-3.244,3.361-7.257,3.371
				c-4.013,0.01-7.269-1.483-7.274-3.334c-0.005-1.852,3.244-3.362,7.256-3.372C364.434,250.321,367.691,251.814,367.696,253.666z"
				/>
			<path style="fill-rule:evenodd;clip-rule:evenodd;fill:#FF8D3B;" d="M364.186,254.824c0.002,0.671-1.676,1.219-3.749,1.224
				c-2.073,0.005-3.754-0.534-3.755-1.205c-0.002-0.671,1.676-1.219,3.749-1.225C362.503,253.614,364.184,254.154,364.186,254.824z"
				/>
			<path style="fill-rule:evenodd;clip-rule:evenodd;fill:#FFAA3B;" d="M389.26,245.73c0.53,1.568-1.795,3.771-5.194,4.921
				c-3.399,1.149-6.584,0.809-7.114-0.76c-0.53-1.568,1.795-3.771,5.194-4.92C385.545,243.822,388.73,244.162,389.26,245.73z"/>
			<path style="fill-rule:evenodd;clip-rule:evenodd;fill:#FF8D3B;" d="M386.614,247.71c0.192,0.568-1.075,1.51-2.83,2.103
				c-1.756,0.594-3.334,0.614-3.527,0.046c-0.192-0.568,1.075-1.51,2.831-2.104C384.843,247.162,386.421,247.142,386.614,247.71z"/>
			<path style="fill-rule:evenodd;clip-rule:evenodd;fill:#FFAA3B;" d="M407.826,231.165c0.934,1.102-0.243,3.638-2.631,5.664
				c-2.388,2.026-5.082,2.775-6.017,1.673c-0.935-1.102,0.243-3.638,2.631-5.664C404.197,230.812,406.89,230.064,407.826,231.165z"
				/>
			<path style="fill-rule:evenodd;clip-rule:evenodd;fill:#FF8D3B;" d="M406.315,233.623c0.338,0.399-0.386,1.571-1.619,2.617
				c-1.234,1.047-2.508,1.571-2.847,1.172c-0.338-0.4,0.386-1.571,1.62-2.618C404.702,233.749,405.976,233.225,406.315,233.623z"/>
			<path style="fill-rule:evenodd;clip-rule:evenodd;fill:#FFAA3B;" d="M420.496,212.406c1.184,0.708,0.902,3.364-0.633,5.933
				c-1.535,2.568-3.74,4.076-4.925,3.368c-1.185-0.708-0.902-3.364,0.633-5.932C417.105,213.206,419.31,211.698,420.496,212.406z"/>
			<path style="fill-rule:evenodd;clip-rule:evenodd;fill:#FF8D3B;" d="M419.888,215.095c0.429,0.257,0.134,1.54-0.658,2.866
				c-0.793,1.327-1.784,2.194-2.213,1.937c-0.429-0.257-0.135-1.539,0.658-2.866C418.468,215.706,419.458,214.838,419.888,215.095z"
				/>
			<path style="fill-rule:evenodd;clip-rule:evenodd;fill:#FFAA3B;" d="M425.115,194.677c1.197,0.278,1.68,2.606,1.077,5.2
				c-0.602,2.595-2.061,4.472-3.258,4.194c-1.197-0.278-1.68-2.606-1.077-5.201C422.46,196.277,423.918,194.399,425.115,194.677z"/>
			<path style="fill-rule:evenodd;clip-rule:evenodd;fill:#FF8D3B;" d="M425.332,197.121c0.433,0.101,0.533,1.269,0.223,2.608
				c-0.311,1.34-0.915,2.345-1.349,2.244c-0.434-0.101-0.533-1.268-0.222-2.609C424.294,198.025,424.898,197.02,425.332,197.121z"/>
			<path style="fill-rule:evenodd;clip-rule:evenodd;fill:#FFAA3B;" d="M422.387,178.421c1.06-0.197,2.268,1.504,2.697,3.802
				c0.429,2.298-0.083,4.321-1.143,4.52c-1.06,0.198-2.267-1.504-2.697-3.802C420.815,180.643,421.327,178.619,422.387,178.421z"/>
			<path style="fill-rule:evenodd;clip-rule:evenodd;fill:#FF8D3B;" d="M423.421,180.31c0.384-0.071,0.874,0.833,1.097,2.018
				c0.222,1.187,0.09,2.207-0.294,2.279c-0.384,0.072-0.875-0.832-1.097-2.019C422.905,181.402,423.037,180.382,423.421,180.31z"/>
			<path style="fill-rule:evenodd;clip-rule:evenodd;fill:#FFAA3B;" d="M415.001,167.036c0.798-0.553,2.417,0.399,3.616,2.128
				c1.199,1.729,1.525,3.579,0.727,4.133c-0.798,0.553-2.417-0.399-3.616-2.128C414.529,169.44,414.203,167.59,415.001,167.036z"/>
			<path style="fill-rule:evenodd;clip-rule:evenodd;fill:#FF8D3B;" d="M416.546,168.206c0.289-0.2,1.026,0.361,1.645,1.253
				c0.62,0.893,0.888,1.78,0.599,1.98c-0.289,0.201-1.026-0.361-1.645-1.253C416.525,169.293,416.257,168.406,416.546,168.206z"/>
			<path style="fill-rule:evenodd;clip-rule:evenodd;fill:#FFAA3B;" d="M404.559,158.209c0.525-0.615,2.03-0.193,3.363,0.944
				c1.332,1.137,1.988,2.557,1.463,3.172c-0.524,0.615-2.03,0.192-3.362-0.945C404.69,160.243,404.035,158.824,404.559,158.209z"/>
			<path style="fill-rule:evenodd;clip-rule:evenodd;fill:#FF8D3B;" d="M406.051,158.822c0.19-0.223,0.902,0.073,1.591,0.659
				c0.688,0.587,1.092,1.244,0.902,1.466c-0.19,0.223-0.902-0.073-1.59-0.659C406.266,159.701,405.862,159.045,406.051,158.822z"/>
		</g>
		<g>
			<path style="fill-rule:evenodd;clip-rule:evenodd;fill:#FFAA3B;" d="M64.426,332.21c2.634,11.268-4.226,14.087-7.652,3.044
				c-21.814-70.318,87.466-87.713,117.077-27.747c7.941,16.082-13.203,57.434-17.901,34.714
				C139.666,263.473,53.188,284.14,64.426,332.21z"/>
			<path style="fill-rule:evenodd;clip-rule:evenodd;fill:#FF8D3B;" d="M58.498,339.293c-0.623-1.049-1.212-2.388-1.724-4.039
				c-21.814-70.318,87.466-87.713,117.077-27.747c3.679,7.45,3.683,13.333,1.338,16.925c-20.738-33.426-50.446-54.935-88.709-41.327
				c-21.348,7.591-30.052,22.43-27.269,42.582C60.153,332.512,60.961,338.473,58.498,339.293z"/>
			<path style="fill-rule:evenodd;clip-rule:evenodd;fill:#FFAA3B;" d="M149.533,285.844c1.259-1.357,4.665-0.246,7.607,2.483
				c2.941,2.729,4.305,6.042,3.045,7.399c-1.259,1.358-4.665,0.246-7.606-2.483C149.637,290.514,148.273,287.202,149.533,285.844z"
				/>
			<path style="fill-rule:evenodd;clip-rule:evenodd;fill:#FF8D3B;" d="M152.89,287.39c0.456-0.492,2.057,0.252,3.577,1.661
				c1.519,1.409,2.38,2.951,1.924,3.442c-0.456,0.492-2.058-0.252-3.576-1.661C153.296,289.423,152.434,287.882,152.89,287.39z"/>
			<path style="fill-rule:evenodd;clip-rule:evenodd;fill:#FFAA3B;" d="M128.35,276.94c0.682-1.509,3.885-1.534,7.154-0.056
				c3.27,1.478,5.367,3.898,4.685,5.407c-0.682,1.509-3.886,1.535-7.155,0.057C129.765,280.87,127.668,278.449,128.35,276.94z"/>
			<path style="fill-rule:evenodd;clip-rule:evenodd;fill:#FF8D3B;" d="M131.636,277.298c0.247-0.547,1.816-0.371,3.504,0.392
				c1.689,0.763,2.856,1.825,2.61,2.371c-0.247,0.547-1.816,0.371-3.504-0.392C132.557,278.906,131.389,277.844,131.636,277.298z"/>
			<path style="fill-rule:evenodd;clip-rule:evenodd;fill:#FFAA3B;" d="M104.839,274.931c0.068-1.444,2.659-2.495,5.787-2.348
				c3.128,0.147,5.609,1.437,5.541,2.88c-0.068,1.443-2.659,2.495-5.787,2.348C107.252,277.664,104.771,276.374,104.839,274.931z"/>
			<path style="fill-rule:evenodd;clip-rule:evenodd;fill:#FF8D3B;" d="M107.62,274.163c0.025-0.523,1.354-0.885,2.969-0.81
				c1.616,0.076,2.906,0.562,2.881,1.085c-0.025,0.523-1.354,0.886-2.97,0.809C108.885,275.172,107.595,274.686,107.62,274.163z"/>
			<path style="fill-rule:evenodd;clip-rule:evenodd;fill:#FFAA3B;" d="M82.779,280.009c-0.384-1.326,1.635-3.076,4.509-3.908
				c2.874-0.832,5.515-0.43,5.899,0.896c0.384,1.327-1.635,3.076-4.509,3.908C85.804,281.737,83.163,281.336,82.779,280.009z"/>
			<path style="fill-rule:evenodd;clip-rule:evenodd;fill:#FF8D3B;" d="M85.057,278.458c-0.139-0.481,0.952-1.219,2.436-1.648
				c1.484-0.429,2.8-0.388,2.939,0.092c0.139,0.48-0.952,1.218-2.436,1.647C86.512,278.979,85.196,278.938,85.057,278.458z"/>
			<path style="fill-rule:evenodd;clip-rule:evenodd;fill:#FFAA3B;" d="M67.308,289.825c-0.686-1.02,0.549-3.052,2.759-4.538
				c2.21-1.487,4.557-1.865,5.243-0.845c0.686,1.02-0.549,3.052-2.759,4.539C70.342,290.466,67.994,290.844,67.308,289.825z"/>
			<path style="fill-rule:evenodd;clip-rule:evenodd;fill:#FF8D3B;" d="M68.817,287.89c-0.248-0.37,0.475-1.292,1.616-2.059
				c1.141-0.768,2.268-1.091,2.517-0.722c0.248,0.37-0.475,1.292-1.616,2.06C70.192,287.936,69.066,288.259,68.817,287.89z"/>
			<path style="fill-rule:evenodd;clip-rule:evenodd;fill:#FFAA3B;" d="M58.218,303.574c-0.911-0.578-0.633-2.647,0.62-4.62
				c1.253-1.973,3.007-3.103,3.918-2.525c0.911,0.578,0.633,2.647-0.62,4.62C60.882,303.021,59.129,304.152,58.218,303.574z"/>
			<path style="fill-rule:evenodd;clip-rule:evenodd;fill:#FF8D3B;" d="M58.749,301.487c-0.33-0.21-0.073-1.206,0.575-2.225
				c0.647-1.019,1.439-1.675,1.769-1.466c0.33,0.21,0.073,1.205-0.575,2.224C59.871,301.04,59.079,301.696,58.749,301.487z"/>
			<path style="fill-rule:evenodd;clip-rule:evenodd;fill:#FFAA3B;" d="M55.855,316.938c-0.961-0.139-1.495-1.94-1.194-4.022
				c0.302-2.082,1.326-3.658,2.287-3.518c0.961,0.139,1.495,1.94,1.194,4.022C57.84,315.502,56.816,317.077,55.855,316.938z"/>
			<path style="fill-rule:evenodd;clip-rule:evenodd;fill:#FF8D3B;" d="M55.522,315.028c-0.348-0.05-0.504-0.963-0.348-2.038
				c0.156-1.076,0.564-1.906,0.913-1.856c0.348,0.051,0.504,0.963,0.348,2.039C56.279,314.248,55.87,315.079,55.522,315.028z"/>
			<path style="fill-rule:evenodd;clip-rule:evenodd;fill:#FFAA3B;" d="M57.471,330.515c-0.803,0.092-1.616-1.244-1.815-2.984
				c-0.199-1.74,0.29-3.225,1.093-3.317c0.803-0.092,1.616,1.244,1.815,2.984C58.763,328.938,58.274,330.423,57.471,330.515z"/>
			<path style="fill-rule:evenodd;clip-rule:evenodd;fill:#FF8D3B;" d="M56.798,329.048c-0.291,0.033-0.61-0.668-0.713-1.566
				c-0.103-0.899,0.05-1.655,0.34-1.688c0.291-0.033,0.611,0.668,0.714,1.567C57.241,328.26,57.088,329.015,56.798,329.048z"/>
		</g>
		<g>
			<path style="fill-rule:evenodd;clip-rule:evenodd;fill:#FFAA3B;" d="M168.344,215.201c9.544-57.863,30.658-83.605,57.611-85.992
				c8.147-0.721,10.476-6.189,0.117-6.941c-43.882-3.183-83.759,54.377-77.591,100.833
				C149.173,228.317,163.384,211.175,168.344,215.201z"/>
			<path style="fill-rule:evenodd;clip-rule:evenodd;fill:#FF8D3B;" d="M170.464,203.786c10.341-49.854,30.38-72.353,55.491-74.577
				c2.968-0.262,5.334-1.256,6.65-2.504c-43.632-4.808-74.537,40.244-73.928,85.433
				C158.742,216.838,168.739,200.488,170.464,203.786z"/>
			<path style="fill-rule:evenodd;clip-rule:evenodd;fill:#FFAA3B;" d="M167.926,187.326c2.036,0.284,3.188,4.091,2.573,8.504
				c-0.616,4.412-2.766,7.759-4.802,7.475c-2.036-0.284-3.188-4.092-2.573-8.504C163.74,190.389,165.89,187.042,167.926,187.326z"/>
			<path style="fill-rule:evenodd;clip-rule:evenodd;fill:#FF8D3B;" d="M168.652,191.366c0.738,0.103,1.078,2.034,0.76,4.312
				c-0.318,2.279-1.174,4.043-1.911,3.94c-0.738-0.103-1.078-2.033-0.76-4.313C167.058,193.027,167.914,191.263,168.652,191.366z"/>
			<path style="fill-rule:evenodd;clip-rule:evenodd;fill:#FFAA3B;" d="M175.533,165.102c1.734,0.699,1.913,4.312,0.397,8.07
				c-1.515,3.757-4.148,6.237-5.883,5.537c-1.734-0.699-1.912-4.312-0.397-8.07C171.165,166.882,173.799,164.402,175.533,165.102z"
				/>
			<path style="fill-rule:evenodd;clip-rule:evenodd;fill:#FF8D3B;" d="M175.284,168.826c0.628,0.253,0.503,2.032-0.279,3.972
				c-0.782,1.941-1.926,3.309-2.554,3.055c-0.628-0.253-0.503-2.031,0.28-3.972C173.513,169.94,174.656,168.572,175.284,168.826z"/>
			<path style="fill-rule:evenodd;clip-rule:evenodd;fill:#FFAA3B;" d="M188.332,147.152c1.198,0.957,0.489,3.837-1.584,6.434
				c-2.073,2.596-4.725,3.926-5.923,2.969c-1.199-0.957-0.49-3.838,1.584-6.433C184.482,147.524,187.134,146.195,188.332,147.152z"
				/>
			<path style="fill-rule:evenodd;clip-rule:evenodd;fill:#FF8D3B;" d="M187.261,150.019c0.434,0.346-0.082,1.714-1.153,3.055
				c-1.071,1.341-2.291,2.147-2.724,1.8c-0.434-0.346,0.082-1.714,1.152-3.055C185.607,150.479,186.827,149.673,187.261,150.019z"/>
			<path style="fill-rule:evenodd;clip-rule:evenodd;fill:#FFAA3B;" d="M202.301,135.242c0.652,1.018-0.607,2.988-2.813,4.402
				c-2.206,1.413-4.523,1.733-5.175,0.715c-0.652-1.018,0.607-2.989,2.813-4.402C199.332,134.545,201.649,134.225,202.301,135.242z"
				/>
			<path style="fill-rule:evenodd;clip-rule:evenodd;fill:#FF8D3B;" d="M200.775,137.111c0.236,0.369-0.496,1.26-1.635,1.99
				c-1.139,0.73-2.254,1.022-2.49,0.654c-0.236-0.369,0.496-1.26,1.635-1.99C199.423,137.036,200.538,136.743,200.775,137.111z"/>
			<path style="fill-rule:evenodd;clip-rule:evenodd;fill:#FFAA3B;" d="M216.006,129.163c0.309,0.817-0.877,2.021-2.647,2.689
				c-1.771,0.668-3.456,0.548-3.764-0.27c-0.309-0.817,0.876-2.022,2.647-2.69C214.013,128.225,215.698,128.345,216.006,129.163z"/>
			<path style="fill-rule:evenodd;clip-rule:evenodd;fill:#FF8D3B;" d="M214.648,130.255c0.111,0.297-0.539,0.816-1.454,1.161
				c-0.914,0.346-1.746,0.385-1.858,0.089c-0.112-0.296,0.539-0.816,1.453-1.161C213.704,129.999,214.536,129.959,214.648,130.255z"
				/>
		</g>
		<rect x="148.171" y="202.72" style="fill-rule:evenodd;clip-rule:evenodd;fill:#FFFFFF;" width="207.081" height="178.956"/>
		<text transform="matrix(1 0 0 1 178.8921 330.9507)" style="fill:#05A096; font-family:'Sniglet-Regular'; font-size:49.6749px;">ERROR</text>
		<text transform="matrix(1 0 0 1 170.1035 286.73)" style="fill:#C03168; font-family:'Sniglet-ExtraBold'; font-size:88.2658px;">404</text>
		<text transform="matrix(1 0 0 1 180.5615 346.4731)" style="fill:#FFBB62; font-family:'Sniglet-Regular'; font-size:11.0381px;">SORRY, THE PAGE NOT FOUND</text>
		<text transform="matrix(1 0 0 1 209.6372 358.0815)" style="fill:#FFBB62; font-family:'Sniglet-Regular'; font-size:11.0381px;">RETURN TO HOME</text>
		<path style="fill-rule:evenodd;clip-rule:evenodd;fill:#F27C27;" d="M238.22,200.218c6.886,0,12.503-5.617,12.503-12.503
			c0-6.887-5.616-12.503-12.503-12.503c-6.887,0-12.503,5.616-12.503,12.503C225.717,194.601,231.334,200.218,238.22,200.218z"/>
		
			<ellipse transform="matrix(0.9871 -0.1602 0.1602 0.9871 -27.189 44.5644)" style="fill-rule:evenodd;clip-rule:evenodd;fill:#F27C27;" cx="262.819" cy="190.924" rx="9.294" ry="9.294"/>
		<path style="fill-rule:evenodd;clip-rule:evenodd;fill:#FFFFFF;" d="M238.22,198.191c6.886,0,12.503-5.617,12.503-12.503
			s-5.616-12.503-12.503-12.503c-6.887,0-12.503,5.616-12.503,12.503S231.334,198.191,238.22,198.191z"/>
		<path style="fill-rule:evenodd;clip-rule:evenodd;fill:#666666;" d="M242.166,194.393c3.959,0,7.188-3.229,7.188-7.188
			c0-3.959-3.229-7.188-7.188-7.188c-3.959,0-7.188,3.229-7.188,7.188C234.978,191.163,238.207,194.393,242.166,194.393z"/>
		<path style="fill-rule:evenodd;clip-rule:evenodd;fill:#FFFFFF;" d="M245.814,187.097c1.755,0,3.187-1.432,3.187-3.187
			c0-1.755-1.432-3.187-3.187-3.187c-1.755,0-3.187,1.432-3.187,3.187C242.627,185.665,244.059,187.097,245.814,187.097z"/>
		
			<ellipse transform="matrix(0.9888 -0.149 0.149 0.9888 -25.2126 41.2699)" style="fill-rule:evenodd;clip-rule:evenodd;fill:#FFFFFF;" cx="262.819" cy="188.898" rx="9.294" ry="9.294"/>
		<path style="fill-rule:evenodd;clip-rule:evenodd;fill:#666666;" d="M259.924,194.13c2.943,0,5.343-2.4,5.343-5.343
			c0-2.943-2.4-5.343-5.343-5.343c-2.943,0-5.343,2.4-5.343,5.343C254.581,191.73,256.982,194.13,259.924,194.13z"/>
		<circle style="fill-rule:evenodd;clip-rule:evenodd;fill:#FFFFFF;" cx="262.636" cy="186.338" r="2.369"/>
		<g>
			<path style="fill-rule:evenodd;clip-rule:evenodd;fill:#FFAA3B;" d="M355.252,292.83c0,48.789-13.845,72.778-35.647,78.386
				c-6.59,1.695-8.717,7.296-0.077,7.476C350.496,379.34,394.458,315.198,355.252,292.83z"/>
			<path style="fill-rule:evenodd;clip-rule:evenodd;fill:#FF8D3B;" d="M355.057,302.487c-1.738,42.322-15.141,63.504-35.452,68.729
				c-2.401,0.617-4.208,1.754-5.12,2.957C357.405,371.865,367.443,318.935,355.057,302.487z"/>
			<path style="fill-rule:evenodd;clip-rule:evenodd;fill:#FFAA3B;" d="M353.875,335.928c-1.517-0.339-2.153-3.281-1.418-6.57
				c0.735-3.29,2.561-5.682,4.079-5.343c1.517,0.339,2.153,3.281,1.418,6.57C357.219,333.875,355.393,336.266,353.875,335.928z"/>
			<path style="fill-rule:evenodd;clip-rule:evenodd;fill:#FF8D3B;" d="M353.575,332.837c-0.549-0.123-0.688-1.6-0.309-3.298
				c0.379-1.699,1.133-2.977,1.683-2.854c0.55,0.123,0.688,1.599,0.309,3.299C354.879,331.682,354.125,332.96,353.575,332.837z"/>
			<path style="fill-rule:evenodd;clip-rule:evenodd;fill:#FFAA3B;" d="M345.873,354.162c-1.112-0.623-0.921-3.083,0.429-5.495
				c1.35-2.412,3.347-3.862,4.461-3.239c1.112,0.623,0.921,3.083-0.429,5.495C348.984,353.335,346.986,354.785,345.873,354.162z"/>
			<path style="fill-rule:evenodd;clip-rule:evenodd;fill:#FF8D3B;" d="M346.364,351.663c-0.403-0.226-0.165-1.418,0.532-2.664
				c0.697-1.246,1.589-2.073,1.993-1.847c0.403,0.226,0.165,1.418-0.533,2.664C347.66,351.062,346.767,351.889,346.364,351.663z"/>
			<path style="fill-rule:evenodd;clip-rule:evenodd;fill:#FFAA3B;" d="M335.323,365.405c-0.639-0.776,0.206-2.529,1.888-3.915
				c1.683-1.385,3.565-1.879,4.205-1.103c0.639,0.776-0.206,2.529-1.889,3.914C337.845,365.688,335.963,366.181,335.323,365.405z"/>
			<path style="fill-rule:evenodd;clip-rule:evenodd;fill:#FF8D3B;" d="M336.399,363.71c-0.231-0.281,0.285-1.089,1.154-1.804
				c0.869-0.716,1.761-1.068,1.993-0.787c0.231,0.281-0.285,1.089-1.154,1.805C337.523,363.639,336.631,363.991,336.399,363.71z"/>
			<path style="fill-rule:evenodd;clip-rule:evenodd;fill:#FFAA3B;" d="M325.076,370.872c-0.238-0.686,0.775-1.662,2.262-2.178
				c1.488-0.516,2.887-0.379,3.125,0.308c0.238,0.686-0.774,1.661-2.262,2.178C326.714,371.697,325.315,371.558,325.076,370.872z"/>
			<path style="fill-rule:evenodd;clip-rule:evenodd;fill:#FF8D3B;" d="M326.231,369.993c-0.086-0.248,0.466-0.666,1.234-0.933
				c0.769-0.267,1.461-0.282,1.547-0.033c0.087,0.249-0.466,0.666-1.235,0.933C327.009,370.228,326.317,370.242,326.231,369.993z"/>
			<path style="fill-rule:evenodd;clip-rule:evenodd;fill:#FFAA3B;" d="M355.251,318.958c-0.487,0.139-1.017,0.028-1.55-0.286
				c0.462-3.502,0.824-7.191,1.081-11.069c0.665,0.994,1.252,2.267,1.661,3.703C357.509,315.041,356.975,318.466,355.251,318.958z"
				/>
		</g>
		<g>
			<path style="fill-rule:evenodd;clip-rule:evenodd;fill:#FFAA3B;" d="M148.172,213.802c0,43.367,13.845,64.689,35.647,69.674
				c6.59,1.507,8.717,6.485,0.077,6.646C152.928,290.697,108.966,233.683,148.172,213.802z"/>
			<path style="fill-rule:evenodd;clip-rule:evenodd;fill:#FF8D3B;" d="M148.366,222.385c1.738,37.618,15.141,56.446,35.452,61.091
				c2.401,0.549,4.208,1.559,5.12,2.629C146.019,284.052,135.981,237.005,148.366,222.385z"/>
			<path style="fill-rule:evenodd;clip-rule:evenodd;fill:#FFAA3B;" d="M149.549,252.109c1.518-0.302,2.153-2.916,1.419-5.84
				c-0.735-2.924-2.561-5.05-4.079-4.749c-1.518,0.301-2.154,2.916-1.419,5.84C146.204,250.285,148.031,252.411,149.549,252.109z"/>
			<path style="fill-rule:evenodd;clip-rule:evenodd;fill:#FF8D3B;" d="M149.848,249.362c0.55-0.109,0.688-1.422,0.309-2.932
				s-1.133-2.645-1.683-2.536c-0.55,0.109-0.688,1.422-0.309,2.932C148.545,248.336,149.299,249.472,149.848,249.362z"/>
			<path style="fill-rule:evenodd;clip-rule:evenodd;fill:#FFAA3B;" d="M157.551,268.317c1.113-0.554,0.921-2.741-0.429-4.884
				c-1.35-2.143-3.347-3.433-4.46-2.879c-1.113,0.554-0.921,2.74,0.429,4.885C154.441,267.582,156.438,268.87,157.551,268.317z"/>
			<path style="fill-rule:evenodd;clip-rule:evenodd;fill:#FF8D3B;" d="M157.06,266.096c0.403-0.201,0.165-1.261-0.532-2.368
				c-0.697-1.107-1.59-1.842-1.993-1.641c-0.403,0.2-0.165,1.261,0.532,2.368C155.764,265.561,156.657,266.297,157.06,266.096z"/>
			<path style="fill-rule:evenodd;clip-rule:evenodd;fill:#FFAA3B;" d="M168.101,278.311c0.639-0.69-0.206-2.248-1.888-3.479
				c-1.682-1.232-3.564-1.671-4.204-0.981c-0.639,0.69,0.206,2.248,1.888,3.48C165.579,278.562,167.461,279.001,168.101,278.311z"/>
			<path style="fill-rule:evenodd;clip-rule:evenodd;fill:#FF8D3B;" d="M167.025,276.804c0.231-0.25-0.285-0.968-1.154-1.604
				c-0.869-0.636-1.761-0.949-1.993-0.699c-0.232,0.249,0.285,0.968,1.154,1.604C165.901,276.741,166.793,277.054,167.025,276.804z"
				/>
			<path style="fill-rule:evenodd;clip-rule:evenodd;fill:#FFAA3B;" d="M178.348,283.17c0.238-0.61-0.774-1.477-2.262-1.936
				c-1.487-0.459-2.886-0.336-3.125,0.274c-0.238,0.61,0.774,1.477,2.262,1.936C176.71,283.903,178.109,283.78,178.348,283.17z"/>
			<path style="fill-rule:evenodd;clip-rule:evenodd;fill:#FF8D3B;" d="M177.193,282.389c0.086-0.221-0.467-0.592-1.235-0.829
				c-0.768-0.237-1.461-0.25-1.547-0.029c-0.087,0.221,0.467,0.592,1.235,0.829C176.414,282.597,177.107,282.61,177.193,282.389z"/>
			<path style="fill-rule:evenodd;clip-rule:evenodd;fill:#FFAA3B;" d="M148.172,237.026c0.487,0.123,1.017,0.025,1.551-0.255
				c-0.463-3.112-0.824-6.391-1.081-9.839c-0.665,0.884-1.252,2.015-1.661,3.292C145.915,233.545,146.449,236.589,148.172,237.026z"
				/>
		</g>
		<g>
			<path style="fill-rule:evenodd;clip-rule:evenodd;fill:#FFAA3B;" d="M148.172,332.741c0,29.761,52.769,40.984,72.615,30.357
				c5.999-3.212,11.355-0.528,5.117,5.452C203.543,389.986,114.091,361.499,148.172,332.741z"/>
			<path style="fill-rule:evenodd;clip-rule:evenodd;fill:#FF8D3B;" d="M148.172,332.741c0,14.592,54.126,40.258,72.615,30.357
				c2.185-1.17,4.285-1.557,5.77-1.288C201.366,391.872,125.595,348.232,148.172,332.741z"/>
			<path style="fill-rule:evenodd;clip-rule:evenodd;fill:#FFAA3B;" d="M173.962,361.053c0.615-1.285-1.144-3.411-3.93-4.744
				c-2.786-1.335-5.544-1.374-6.16-0.088c-0.616,1.285,1.144,3.41,3.93,4.745C170.588,362.299,173.347,362.339,173.962,361.053z"/>
			<path style="fill-rule:evenodd;clip-rule:evenodd;fill:#FF8D3B;" d="M171.905,359.086c0.223-0.465-0.762-1.402-2.201-2.091
				c-1.439-0.69-2.786-0.87-3.01-0.405c-0.223,0.466,0.762,1.403,2.202,2.091C170.335,359.37,171.682,359.552,171.905,359.086z"/>
			<path style="fill-rule:evenodd;clip-rule:evenodd;fill:#FFAA3B;" d="M190.181,367.072c0.397-1.212-1.409-2.893-4.035-3.755
				c-2.627-0.862-5.079-0.578-5.476,0.634c-0.398,1.212,1.409,2.893,4.035,3.755C187.331,368.568,189.783,368.284,190.181,367.072z"
				/>
			<path style="fill-rule:evenodd;clip-rule:evenodd;fill:#FF8D3B;" d="M188.128,365.564c0.144-0.439-0.839-1.156-2.195-1.601
				c-1.356-0.445-2.573-0.45-2.716-0.011c-0.145,0.439,0.838,1.156,2.195,1.601C186.768,365.999,187.984,366.004,188.128,365.564z"
				/>
			<path style="fill-rule:evenodd;clip-rule:evenodd;fill:#FFAA3B;" d="M205.587,369.225c0.147-0.995-1.481-2.06-3.637-2.379
				c-2.156-0.318-4.023,0.23-4.17,1.225c-0.147,0.995,1.481,2.06,3.638,2.379C203.573,370.768,205.441,370.22,205.587,369.225z"/>
			<path style="fill-rule:evenodd;clip-rule:evenodd;fill:#FF8D3B;" d="M203.791,368.328c0.054-0.361-0.807-0.786-1.92-0.95
				c-1.113-0.165-2.059-0.006-2.112,0.354c-0.054,0.361,0.806,0.787,1.92,0.951C202.792,368.847,203.738,368.688,203.791,368.328z"
				/>
			<path style="fill-rule:evenodd;clip-rule:evenodd;fill:#FFAA3B;" d="M216.729,367.255c-0.109-0.718-1.459-1.11-3.016-0.873
				c-1.557,0.236-2.731,1.009-2.622,1.728c0.109,0.718,1.459,1.109,3.016,0.873C215.664,368.748,216.837,367.974,216.729,367.255z"
				/>
			<path style="fill-rule:evenodd;clip-rule:evenodd;fill:#FF8D3B;" d="M215.298,367.016c-0.039-0.26-0.723-0.372-1.527-0.25
				c-0.804,0.121-1.423,0.431-1.384,0.692c0.04,0.26,0.723,0.372,1.528,0.251C214.718,367.586,215.338,367.277,215.298,367.016z"/>
			<path style="fill-rule:evenodd;clip-rule:evenodd;fill:#FFAA3B;" d="M158.031,352.212c1.241-1.149,0.231-4.261-2.259-6.951
				c-2.489-2.69-5.514-3.939-6.755-2.791c-1.242,1.149-0.23,4.261,2.259,6.951C153.765,352.112,156.79,353.362,158.031,352.212z"/>
			<path style="fill-rule:evenodd;clip-rule:evenodd;fill:#FF8D3B;" d="M156.623,349.144c0.45-0.416-0.229-1.88-1.514-3.269
				c-1.285-1.389-2.692-2.178-3.142-1.762c-0.45,0.416,0.228,1.88,1.513,3.269C154.767,348.771,156.173,349.56,156.623,349.144z"/>
		</g>
		<g>
			<path style="fill-rule:evenodd;clip-rule:evenodd;fill:#FFAA3B;" d="M355.252,254.6c0,29.761-52.769,40.984-72.614,30.357
				c-5.999-3.212-11.355-0.528-5.117,5.452C299.881,311.845,389.333,283.358,355.252,254.6z"/>
			<path style="fill-rule:evenodd;clip-rule:evenodd;fill:#FF8D3B;" d="M355.252,254.6c0,14.592-54.126,40.258-72.614,30.357
				c-2.185-1.17-4.285-1.557-5.77-1.288C302.058,313.731,377.829,270.091,355.252,254.6z"/>
			<path style="fill-rule:evenodd;clip-rule:evenodd;fill:#FFAA3B;" d="M329.462,282.912c-0.616-1.286,1.143-3.41,3.93-4.744
				c2.786-1.335,5.544-1.374,6.16-0.088c0.616,1.286-1.143,3.41-3.93,4.745C332.836,284.159,330.078,284.198,329.462,282.912z"/>
			<path style="fill-rule:evenodd;clip-rule:evenodd;fill:#FF8D3B;" d="M331.519,280.945c-0.223-0.466,0.763-1.402,2.202-2.091
				c1.439-0.689,2.786-0.87,3.009-0.404c0.223,0.466-0.763,1.402-2.201,2.091C333.09,281.23,331.742,281.411,331.519,280.945z"/>
			<path style="fill-rule:evenodd;clip-rule:evenodd;fill:#FFAA3B;" d="M313.244,288.931c-0.398-1.212,1.409-2.894,4.035-3.755
				c2.626-0.862,5.078-0.578,5.476,0.634c0.397,1.212-1.409,2.893-4.035,3.755C316.093,290.427,313.641,290.143,313.244,288.931z"/>
			<path style="fill-rule:evenodd;clip-rule:evenodd;fill:#FF8D3B;" d="M315.296,287.423c-0.144-0.439,0.839-1.156,2.195-1.601
				c1.357-0.445,2.573-0.45,2.717-0.011c0.144,0.439-0.839,1.156-2.195,1.601C316.656,287.858,315.44,287.863,315.296,287.423z"/>
			<path style="fill-rule:evenodd;clip-rule:evenodd;fill:#FFAA3B;" d="M297.837,291.084c-0.147-0.995,1.481-2.06,3.637-2.379
				c2.156-0.319,4.023,0.23,4.17,1.225c0.147,0.995-1.482,2.06-3.638,2.379C299.85,292.627,297.984,292.078,297.837,291.084z"/>
			<path style="fill-rule:evenodd;clip-rule:evenodd;fill:#FF8D3B;" d="M299.633,290.187c-0.053-0.361,0.806-0.786,1.919-0.951
				c1.114-0.165,2.06-0.006,2.113,0.355c0.053,0.36-0.806,0.786-1.92,0.95C300.632,290.706,299.686,290.547,299.633,290.187z"/>
			<path style="fill-rule:evenodd;clip-rule:evenodd;fill:#FFAA3B;" d="M286.695,289.114c0.109-0.719,1.46-1.11,3.016-0.873
				c1.557,0.236,2.73,1.01,2.621,1.728c-0.109,0.718-1.459,1.109-3.016,0.873C287.76,290.607,286.586,289.833,286.695,289.114z"/>
			<path style="fill-rule:evenodd;clip-rule:evenodd;fill:#FF8D3B;" d="M288.126,288.875c0.039-0.26,0.723-0.372,1.527-0.25
				c0.804,0.122,1.424,0.431,1.384,0.692c-0.039,0.26-0.723,0.372-1.527,0.251C288.706,289.445,288.087,289.135,288.126,288.875z"/>
			<path style="fill-rule:evenodd;clip-rule:evenodd;fill:#FFAA3B;" d="M345.393,274.072c-1.242-1.149-0.23-4.261,2.259-6.951
				c2.489-2.69,5.513-3.939,6.755-2.79c1.241,1.149,0.23,4.261-2.259,6.951C349.659,273.971,346.634,275.221,345.393,274.072z"/>
			<path style="fill-rule:evenodd;clip-rule:evenodd;fill:#FF8D3B;" d="M346.801,271.003c-0.45-0.416,0.228-1.879,1.514-3.269
				c1.285-1.389,2.692-2.178,3.142-1.762c0.45,0.416-0.228,1.88-1.513,3.269C348.658,270.63,347.251,271.419,346.801,271.003z"/>
		</g>
		<g>
			<path style="fill-rule:evenodd;clip-rule:evenodd;fill:#FFAA3B;" d="M353.499,202.72c-48.789,0-72.777,13.845-78.386,35.647
				c-1.695,6.59-7.296,8.717-7.476,0.077C266.989,207.476,331.131,163.515,353.499,202.72z"/>
			<path style="fill-rule:evenodd;clip-rule:evenodd;fill:#FF8D3B;" d="M343.842,202.914c-42.323,1.738-63.504,15.141-68.729,35.452
				c-0.617,2.401-1.753,4.209-2.957,5.12C274.464,200.567,327.395,190.529,343.842,202.914z"/>
			<path style="fill-rule:evenodd;clip-rule:evenodd;fill:#FFAA3B;" d="M310.401,204.097c0.339,1.518,3.28,2.153,6.57,1.419
				c3.29-0.735,5.681-2.561,5.342-4.079c-0.339-1.518-3.281-2.154-6.57-1.419C312.454,200.753,310.063,202.579,310.401,204.097z"/>
			<path style="fill-rule:evenodd;clip-rule:evenodd;fill:#FF8D3B;" d="M313.492,204.396c0.123,0.55,1.6,0.688,3.298,0.309
				c1.699-0.38,2.976-1.133,2.853-1.683c-0.123-0.55-1.6-0.688-3.298-0.309C314.647,203.093,313.369,203.847,313.492,204.396z"/>
			<path style="fill-rule:evenodd;clip-rule:evenodd;fill:#FFAA3B;" d="M292.167,212.098c0.623,1.114,3.083,0.921,5.495-0.429
				c2.412-1.35,3.862-3.347,3.239-4.46c-0.623-1.113-3.083-0.921-5.496,0.429C292.995,208.988,291.544,210.985,292.167,212.098z"/>
			<path style="fill-rule:evenodd;clip-rule:evenodd;fill:#FF8D3B;" d="M294.666,211.607c0.226,0.404,1.418,0.165,2.664-0.532
				c1.246-0.697,2.073-1.589,1.847-1.993c-0.226-0.404-1.418-0.165-2.664,0.532C295.267,210.312,294.44,211.205,294.666,211.607z"/>
			<path style="fill-rule:evenodd;clip-rule:evenodd;fill:#FFAA3B;" d="M280.924,222.649c0.776,0.639,2.529-0.206,3.915-1.889
				c1.385-1.682,1.879-3.564,1.103-4.204c-0.777-0.639-2.529,0.206-3.915,1.888C280.641,220.127,280.148,222.009,280.924,222.649z"
				/>
			<path style="fill-rule:evenodd;clip-rule:evenodd;fill:#FF8D3B;" d="M282.619,221.573c0.281,0.232,1.089-0.285,1.805-1.154
				c0.716-0.869,1.068-1.761,0.786-1.993c-0.281-0.232-1.089,0.285-1.805,1.154C282.69,220.449,282.338,221.341,282.619,221.573z"/>
			<path style="fill-rule:evenodd;clip-rule:evenodd;fill:#FFAA3B;" d="M275.457,232.896c0.686,0.238,1.662-0.774,2.178-2.262
				c0.516-1.487,0.378-2.887-0.308-3.125c-0.686-0.238-1.661,0.774-2.177,2.262C274.633,231.258,274.771,232.657,275.457,232.896z"
				/>
			<path style="fill-rule:evenodd;clip-rule:evenodd;fill:#FF8D3B;" d="M276.335,231.741c0.249,0.086,0.667-0.467,0.933-1.234
				c0.267-0.768,0.281-1.461,0.033-1.547c-0.249-0.087-0.667,0.466-0.933,1.235C276.101,230.962,276.087,231.655,276.335,231.741z"
				/>
			<path style="fill-rule:evenodd;clip-rule:evenodd;fill:#FFAA3B;" d="M327.371,202.72c-0.139,0.487-0.028,1.017,0.286,1.551
				c3.501-0.463,7.19-0.824,11.069-1.081c-0.994-0.665-2.267-1.252-3.703-1.661C331.288,200.463,327.862,200.997,327.371,202.72z"/>
		</g>
	</g>
</g>
<g id="DESIGNED_BY_FREEPIK">
	<g>
		<path style="fill:#FFFFFF;" d="M181.047,466.607c-0.246,0-0.434,0.085-0.567,0.255c-0.133,0.17-0.199,0.421-0.199,0.754v2.392
			c-0.304-0.331-0.617-0.578-0.937-0.739c-0.204-0.101-0.438-0.171-0.701-0.208v1.167c0.278,0.003,0.534,0.086,0.769,0.246
			c0.24,0.165,0.429,0.402,0.57,0.712c0.141,0.311,0.21,0.682,0.21,1.114c0,0.458-0.069,0.842-0.21,1.149l0,0
			c-0.14,0.306-0.328,0.533-0.563,0.681c-0.235,0.148-0.493,0.222-0.775,0.223v1.208c0.105-0.019,0.208-0.046,0.305-0.078
			c0.247-0.081,0.477-0.2,0.689-0.356c0.212-0.156,0.427-0.359,0.644-0.608v0.161c0,0.296,0.072,0.525,0.217,0.685
			c0.145,0.16,0.328,0.24,0.549,0.24c0.226,0,0.409-0.078,0.552-0.231c0.143-0.154,0.214-0.386,0.214-0.694v-7.147
			c0-0.305-0.066-0.534-0.199-0.691C181.481,466.685,181.292,466.607,181.047,466.607z M178.643,469.06
			c-0.151-0.021-0.311-0.032-0.48-0.032c-0.807,0-1.458,0.283-1.953,0.848c-0.494,0.565-0.742,1.356-0.742,2.369
			c0,0.478,0.063,0.923,0.187,1.335c0.124,0.412,0.307,0.769,0.549,1.074c0.241,0.305,0.526,0.539,0.857,0.704
			c0.33,0.164,0.69,0.246,1.078,0.246c0.176,0,0.344-0.014,0.503-0.044v-1.208h-0.006c-0.281,0-0.54-0.078-0.778-0.236
			c-0.238-0.155-0.424-0.387-0.561-0.696c-0.136-0.309-0.205-0.682-0.205-1.122c0-0.416,0.064-0.781,0.193-1.095
			c0.128-0.315,0.31-0.556,0.543-0.724c0.233-0.168,0.499-0.253,0.795-0.253h0.017V469.06z"/>
		<path style="fill:#FFFFFF;" d="M188.412,472.527c0.233-0.122,0.35-0.385,0.35-0.793c0-0.438-0.114-0.87-0.339-1.294
			c-0.225-0.423-0.565-0.769-1.018-1.035c-0.453-0.268-0.996-0.4-1.628-0.4l-0.051,0v1.127c0.422,0.001,0.762,0.138,1.021,0.412
			c0.259,0.275,0.409,0.69,0.448,1.244h-1.469v0.92h1.7C187.85,472.708,188.179,472.647,188.412,472.527L188.412,472.527z
			 M185.726,475.601c0.056,0.002,0.112,0.003,0.169,0.003c0.455,0,0.858-0.059,1.207-0.178c0.352-0.12,0.641-0.268,0.873-0.448
			c0.231-0.18,0.404-0.368,0.519-0.564c0.115-0.197,0.172-0.367,0.172-0.514c0-0.166-0.052-0.294-0.155-0.386
			c-0.103-0.09-0.237-0.136-0.403-0.136c-0.154,0-0.274,0.035-0.357,0.107c-0.202,0.19-0.366,0.34-0.492,0.452
			c-0.126,0.111-0.265,0.215-0.416,0.312c-0.15,0.098-0.305,0.167-0.466,0.214c-0.16,0.045-0.337,0.067-0.531,0.067
			c-0.041,0-0.082-0.001-0.122-0.004V475.601z M185.726,469.005c-0.467,0.005-0.893,0.083-1.279,0.233
			c-0.4,0.157-0.736,0.38-1.009,0.674c-0.273,0.293-0.48,0.644-0.623,1.054c-0.143,0.409-0.214,0.853-0.214,1.332
			c0,1.017,0.289,1.822,0.867,2.415c0.546,0.56,1.299,0.857,2.258,0.888v-1.076c-0.242-0.017-0.465-0.086-0.671-0.209
			c-0.239-0.142-0.432-0.354-0.576-0.635c-0.145-0.281-0.218-0.605-0.222-0.973h1.469v-0.92h-1.469l0,0
			c0.055-0.546,0.213-0.959,0.472-1.238c0.259-0.28,0.59-0.418,0.994-0.418h0.003V469.005z"/>
		<path style="fill:#FFFFFF;" d="M193.839,472.09c-0.319-0.169-0.729-0.316-1.231-0.439c-0.425-0.103-0.756-0.19-0.997-0.261
			c-0.242-0.07-0.434-0.161-0.577-0.27c-0.142-0.109-0.213-0.248-0.213-0.419c0-0.186,0.096-0.341,0.29-0.465
			c0.194-0.126,0.437-0.187,0.73-0.187c0.286,0,0.511,0.047,0.677,0.142c0.166,0.095,0.31,0.222,0.433,0.38
			c0.151,0.19,0.284,0.332,0.401,0.427c0.116,0.095,0.258,0.143,0.424,0.143c0.23,0,0.408-0.061,0.532-0.178
			c0.124-0.119,0.186-0.272,0.186-0.457c0-0.171-0.058-0.345-0.175-0.523c-0.116-0.178-0.286-0.34-0.51-0.486
			c-0.223-0.146-0.502-0.264-0.837-0.35c-0.333-0.088-0.71-0.131-1.13-0.131c-0.535,0-0.99,0.086-1.367,0.259
			c-0.379,0.172-0.665,0.403-0.859,0.691c-0.194,0.289-0.291,0.596-0.291,0.92c0,0.363,0.105,0.67,0.315,0.92
			c0.21,0.249,0.489,0.45,0.84,0.602c0.351,0.152,0.804,0.298,1.362,0.436c0.494,0.12,0.85,0.244,1.066,0.375
			c0.216,0.131,0.323,0.338,0.323,0.622c0,0.187-0.104,0.352-0.311,0.497c-0.207,0.145-0.473,0.216-0.798,0.216
			c-0.4,0-0.715-0.071-0.947-0.213c-0.231-0.143-0.431-0.357-0.597-0.647c-0.083-0.149-0.17-0.267-0.261-0.351
			c-0.091-0.082-0.221-0.124-0.391-0.124c-0.194,0-0.355,0.064-0.481,0.19c-0.128,0.126-0.191,0.278-0.191,0.456
			c0,0.27,0.099,0.538,0.297,0.805c0.197,0.266,0.504,0.49,0.92,0.667c0.415,0.178,0.914,0.267,1.495,0.267
			c0.61,0,1.127-0.082,1.553-0.246c0.425-0.164,0.747-0.406,0.964-0.724c0.219-0.319,0.327-0.702,0.327-1.149
			c0-0.297-0.082-0.56-0.246-0.791C194.398,472.461,194.157,472.26,193.839,472.09z"/>
		<path style="fill:#FFFFFF;" d="M196.446,469.016c-0.238,0-0.43,0.081-0.578,0.243c-0.149,0.162-0.222,0.404-0.222,0.724v4.635
			c0,0.317,0.073,0.56,0.222,0.731c0.148,0.17,0.341,0.255,0.578,0.255c0.238,0,0.433-0.083,0.588-0.249
			c0.154-0.166,0.231-0.412,0.231-0.737v-4.682c0-0.288-0.077-0.514-0.231-0.677C196.88,469.097,196.684,469.016,196.446,469.016z"
			/>
		<path style="fill:#FFFFFF;" d="M196.464,466.677c-0.217,0-0.409,0.073-0.573,0.223c-0.164,0.149-0.246,0.337-0.246,0.567
			c0,0.254,0.08,0.45,0.24,0.588c0.16,0.138,0.353,0.208,0.579,0.208c0.217,0,0.405-0.071,0.564-0.211
			c0.158-0.141,0.238-0.335,0.238-0.585c0-0.257-0.081-0.453-0.243-0.588C196.86,466.745,196.674,466.677,196.464,466.677z"/>
		<path style="fill:#FFFFFF;" d="M203.586,469.016c-0.217,0-0.395,0.078-0.534,0.231c-0.139,0.155-0.207,0.372-0.207,0.653v0.22
			c-0.289-0.376-0.602-0.652-0.937-0.829c-0.204-0.106-0.431-0.18-0.68-0.223v1.158c0.462,0.007,0.836,0.191,1.122,0.553
			c0.291,0.367,0.436,0.882,0.436,1.543c0,0.416-0.076,0.768-0.225,1.059l0,0c-0.152,0.291-0.346,0.508-0.586,0.653
			c-0.235,0.142-0.484,0.214-0.747,0.217v1.163c0.244-0.043,0.466-0.12,0.664-0.231c0.327-0.182,0.615-0.448,0.864-0.797
			c-0.008,0.531-0.019,0.915-0.035,1.155c-0.016,0.24-0.07,0.464-0.164,0.673c-0.093,0.21-0.255,0.374-0.486,0.49
			c-0.206,0.104-0.487,0.162-0.843,0.173v1.129c0.561-0.007,1.034-0.068,1.418-0.183c0.409-0.122,0.741-0.31,0.994-0.563
			c0.253-0.254,0.437-0.574,0.552-0.961c0.115-0.389,0.173-0.851,0.173-1.39v-4.706c0-0.384-0.051-0.678-0.155-0.882
			C204.106,469.118,203.899,469.016,203.586,469.016z M201.227,469.069c-0.162-0.027-0.333-0.041-0.514-0.041
			c-0.384,0-0.736,0.068-1.056,0.204c-0.321,0.138-0.604,0.34-0.849,0.609c-0.245,0.269-0.433,0.599-0.566,0.992
			c-0.133,0.391-0.199,0.83-0.199,1.317c0,0.653,0.109,1.228,0.326,1.727c0.217,0.499,0.529,0.886,0.934,1.163
			c0.407,0.277,0.88,0.416,1.422,0.416c0.177,0,0.344-0.014,0.502-0.042v-1.163h-0.015c-0.455,0-0.826-0.168-1.113-0.505
			c-0.287-0.336-0.43-0.834-0.43-1.49c0-0.649,0.139-1.15,0.418-1.502c0.279-0.352,0.649-0.528,1.113-0.528h0.027V469.069
			L201.227,469.069z M201.227,476.878l-0.134,0.002c-0.205,0-0.387-0.02-0.545-0.056c-0.158-0.038-0.294-0.095-0.406-0.172
			c-0.112-0.078-0.216-0.17-0.309-0.279c-0.094-0.109-0.183-0.217-0.27-0.324c-0.178-0.209-0.386-0.314-0.624-0.314
			c-0.189,0-0.352,0.062-0.487,0.188c-0.135,0.124-0.202,0.285-0.202,0.483c0,0.262,0.119,0.516,0.356,0.763
			c0.238,0.247,0.576,0.449,1.014,0.606c0.439,0.156,0.939,0.234,1.496,0.234l0.11-0.001V476.878z"/>
		<path style="fill:#FFFFFF;" d="M210.938,470.084c-0.165-0.339-0.417-0.602-0.753-0.789c-0.337-0.186-0.718-0.28-1.146-0.28
			c-0.439,0-0.827,0.088-1.165,0.264c-0.339,0.176-0.65,0.452-0.935,0.828v-0.196c0-0.194-0.034-0.358-0.104-0.493
			c-0.07-0.134-0.162-0.234-0.276-0.302c-0.115-0.068-0.244-0.102-0.387-0.102c-0.233,0-0.417,0.077-0.552,0.228
			c-0.134,0.152-0.202,0.383-0.202,0.692v4.682c0,0.317,0.076,0.56,0.226,0.731c0.15,0.17,0.342,0.255,0.576,0.255
			c0.241,0,0.438-0.082,0.59-0.246c0.152-0.164,0.228-0.412,0.228-0.74v-2.029c0-0.661,0.04-1.111,0.119-1.353
			c0.11-0.3,0.284-0.537,0.522-0.71c0.237-0.173,0.501-0.258,0.789-0.258c0.444,0,0.74,0.142,0.888,0.424
			c0.148,0.283,0.223,0.692,0.223,1.226v2.7c0,0.317,0.074,0.56,0.226,0.731c0.15,0.17,0.346,0.255,0.587,0.255
			c0.238,0,0.431-0.083,0.578-0.249c0.149-0.166,0.223-0.412,0.223-0.737v-3.015c0-0.356-0.016-0.648-0.048-0.878
			C211.115,470.496,211.046,470.282,210.938,470.084z"/>
		<path style="fill:#FFFFFF;" d="M217.781,472.527c0.234-0.122,0.351-0.385,0.351-0.793c0-0.438-0.114-0.87-0.338-1.294
			c-0.226-0.423-0.565-0.769-1.019-1.035c-0.453-0.268-0.995-0.4-1.628-0.4l-0.051,0v1.127c0.422,0.001,0.762,0.138,1.021,0.412
			c0.259,0.275,0.409,0.69,0.448,1.244h-1.469v0.92h1.7C217.22,472.708,217.548,472.647,217.781,472.527L217.781,472.527z
			 M215.096,475.601c0.056,0.002,0.112,0.003,0.169,0.003c0.455,0,0.858-0.059,1.208-0.178c0.35-0.12,0.64-0.268,0.871-0.448
			c0.232-0.18,0.405-0.368,0.52-0.564c0.115-0.197,0.172-0.367,0.172-0.514c0-0.166-0.051-0.294-0.154-0.386
			c-0.103-0.09-0.238-0.136-0.404-0.136c-0.154,0-0.273,0.035-0.357,0.107c-0.201,0.19-0.366,0.34-0.492,0.452
			c-0.128,0.111-0.266,0.215-0.416,0.312c-0.151,0.098-0.307,0.167-0.465,0.214c-0.161,0.045-0.338,0.067-0.532,0.067
			c-0.041,0-0.081-0.001-0.121-0.004V475.601z M215.096,469.005c-0.467,0.005-0.893,0.083-1.279,0.233
			c-0.4,0.157-0.736,0.38-1.009,0.674c-0.273,0.293-0.481,0.644-0.623,1.054c-0.142,0.409-0.214,0.853-0.214,1.332
			c0,1.017,0.289,1.822,0.867,2.415c0.546,0.56,1.299,0.857,2.258,0.888v-1.076c-0.242-0.017-0.465-0.086-0.671-0.209
			c-0.239-0.142-0.431-0.354-0.576-0.635c-0.145-0.281-0.219-0.605-0.223-0.973h1.469v-0.92h-1.469l0,0
			c0.056-0.546,0.212-0.959,0.471-1.238c0.259-0.28,0.591-0.418,0.995-0.418h0.003V469.005z"/>
		<path style="fill:#FFFFFF;" d="M224.167,466.607c-0.245,0-0.435,0.085-0.567,0.255c-0.132,0.17-0.2,0.421-0.2,0.754v2.392
			c-0.304-0.331-0.616-0.578-0.937-0.739c-0.203-0.101-0.437-0.171-0.7-0.208v1.167c0.278,0.003,0.534,0.086,0.769,0.246
			c0.239,0.165,0.429,0.402,0.57,0.712c0.14,0.311,0.211,0.682,0.211,1.114c0,0.458-0.07,0.842-0.211,1.149l0,0
			c-0.14,0.306-0.328,0.533-0.564,0.681c-0.233,0.148-0.491,0.222-0.774,0.223v1.208c0.105-0.019,0.208-0.046,0.306-0.078
			c0.247-0.081,0.476-0.2,0.688-0.356c0.211-0.156,0.426-0.359,0.643-0.608v0.161c0,0.296,0.073,0.525,0.217,0.685
			c0.145,0.16,0.327,0.24,0.549,0.24c0.226,0,0.409-0.078,0.552-0.231c0.143-0.154,0.214-0.386,0.214-0.694v-7.147
			c0-0.305-0.066-0.534-0.199-0.691C224.601,466.685,224.412,466.607,224.167,466.607z M221.763,469.06
			c-0.15-0.021-0.311-0.032-0.481-0.032c-0.808,0-1.458,0.283-1.953,0.848c-0.495,0.565-0.742,1.356-0.742,2.369
			c0,0.478,0.062,0.923,0.187,1.335c0.125,0.412,0.308,0.769,0.549,1.074c0.241,0.305,0.527,0.539,0.857,0.704
			c0.33,0.164,0.689,0.246,1.077,0.246c0.176,0,0.344-0.014,0.504-0.044v-1.208h-0.007c-0.281,0-0.539-0.078-0.776-0.236
			c-0.238-0.155-0.425-0.387-0.561-0.696c-0.137-0.309-0.205-0.682-0.205-1.122c0-0.416,0.064-0.781,0.192-1.095
			c0.129-0.315,0.31-0.556,0.543-0.724c0.233-0.168,0.499-0.253,0.795-0.253h0.018V469.06z"/>
		<path style="fill:#FFFFFF;" d="M233.546,469.41c-0.406-0.254-0.878-0.382-1.416-0.382c-0.17,0-0.331,0.011-0.481,0.034v1.166
			l0.054-0.001c0.3,0,0.564,0.085,0.789,0.253c0.225,0.168,0.399,0.407,0.522,0.715c0.123,0.308,0.183,0.677,0.183,1.104
			c0,0.661-0.147,1.168-0.442,1.523l0,0c-0.294,0.355-0.646,0.531-1.053,0.531l-0.054-0.001v1.216
			c0.148,0.025,0.303,0.037,0.464,0.037c0.407,0,0.78-0.082,1.118-0.246c0.338-0.164,0.626-0.397,0.864-0.698
			c0.237-0.3,0.418-0.656,0.543-1.065c0.125-0.41,0.187-0.859,0.187-1.35c0-0.665-0.112-1.241-0.336-1.725
			C234.266,470.036,233.951,469.666,233.546,469.41z M231.649,469.062c-0.262,0.039-0.493,0.112-0.694,0.218
			c-0.317,0.168-0.627,0.41-0.932,0.727v-2.475c0-0.297-0.068-0.524-0.202-0.685c-0.134-0.16-0.326-0.24-0.575-0.24
			c-0.238,0-0.423,0.084-0.556,0.252c-0.132,0.168-0.198,0.416-0.198,0.744v7.075c0,0.304,0.068,0.535,0.205,0.692
			c0.136,0.156,0.319,0.234,0.549,0.234c0.226,0,0.412-0.078,0.558-0.234c0.146-0.157,0.219-0.387,0.219-0.692v-0.161
			c0.178,0.205,0.322,0.361,0.43,0.463c0.109,0.104,0.241,0.204,0.395,0.3c0.154,0.097,0.341,0.175,0.561,0.234
			c0.078,0.021,0.158,0.039,0.24,0.052v-1.216c-0.454-0.012-0.823-0.186-1.107-0.52c-0.295-0.346-0.442-0.841-0.442-1.486
			c0-0.439,0.069-0.818,0.208-1.136c0.139-0.319,0.328-0.562,0.57-0.73c0.226-0.158,0.484-0.242,0.771-0.251V469.062z"/>
		<path style="fill:#FFFFFF;" d="M240.489,469.114c-0.112-0.066-0.23-0.098-0.353-0.098c-0.171,0-0.303,0.03-0.395,0.09
			c-0.093,0.058-0.181,0.173-0.264,0.344c-0.083,0.17-0.176,0.406-0.279,0.706l-1.3,3.709l-1.371-3.988
			c-0.091-0.277-0.195-0.489-0.314-0.638c-0.119-0.148-0.295-0.223-0.528-0.223c-0.135,0-0.264,0.035-0.389,0.107
			c-0.124,0.071-0.222,0.166-0.294,0.285c-0.071,0.118-0.107,0.246-0.107,0.385c0,0.13,0.062,0.341,0.185,0.628l1.994,5.022
			l-0.148,0.362c-0.111,0.265-0.209,0.466-0.294,0.601c-0.085,0.138-0.181,0.234-0.287,0.289c-0.107,0.056-0.254,0.084-0.44,0.084
			c-0.074,0-0.164-0.012-0.266-0.035c-0.083-0.024-0.169-0.037-0.257-0.037c-0.221,0-0.388,0.051-0.5,0.152
			c-0.113,0.101-0.169,0.245-0.169,0.43c0,0.273,0.118,0.461,0.356,0.564c0.237,0.103,0.593,0.154,1.068,0.154
			c0.487,0,0.873-0.074,1.161-0.223c0.287-0.148,0.517-0.361,0.691-0.638c0.175-0.277,0.353-0.659,0.535-1.145l2.113-5.532
			c0.051-0.142,0.095-0.283,0.13-0.421c0.036-0.139,0.061-0.246,0.078-0.321c0-0.123-0.032-0.239-0.093-0.35
			C240.689,469.267,240.602,469.179,240.489,469.114z"/>
		<path style="fill:#FFFFFF;" d="M262.89,466.602c-0.534,0-0.954,0.069-1.26,0.204c-0.307,0.137-0.527,0.354-0.654,0.652
			c-0.129,0.301-0.191,0.702-0.191,1.211v0.487h-0.387c-0.543,0-0.815,0.193-0.815,0.582c0,0.174,0.066,0.316,0.196,0.424
			c0.132,0.111,0.315,0.164,0.558,0.164h0.447v4.294c0,0.319,0.074,0.563,0.227,0.73c0.154,0.17,0.344,0.254,0.573,0.254
			c0.243,0,0.438-0.084,0.589-0.254c0.155-0.167,0.23-0.411,0.23-0.73v-4.294h0.395c0.291,0,0.517-0.035,0.681-0.107
			c0.166-0.071,0.245-0.24,0.245-0.502c0-0.374-0.306-0.56-0.926-0.56h-0.395v-0.385c0-0.322,0.043-0.568,0.122-0.74
			c0.087-0.171,0.273-0.259,0.566-0.259c0.107,0,0.241,0.014,0.389,0.034c0.156,0.026,0.267,0.038,0.33,0.038
			c0.134,0,0.252-0.054,0.348-0.16c0.101-0.107,0.15-0.236,0.15-0.384C264.31,466.832,263.839,466.602,262.89,466.602z"/>
		<path style="fill:#FFFFFF;" d="M268.049,469.268c-0.32-0.171-0.647-0.255-0.99-0.255c-0.342,0-0.611,0.084-0.818,0.255
			c-0.203,0.171-0.401,0.421-0.593,0.755c-0.014-0.334-0.08-0.584-0.198-0.755c-0.119-0.171-0.313-0.255-0.583-0.255
			c-0.526,0-0.788,0.365-0.788,1.093v4.513c0,0.323,0.078,0.569,0.225,0.734c0.15,0.168,0.341,0.25,0.579,0.25
			c0.237,0,0.432-0.081,0.586-0.247c0.151-0.163,0.234-0.41,0.234-0.737v-1.355c0-0.486,0.014-0.899,0.044-1.239
			c0.034-0.336,0.09-0.63,0.17-0.878c0.084-0.243,0.201-0.425,0.353-0.553c0.15-0.122,0.345-0.186,0.582-0.186
			c0.172,0,0.373,0.037,0.602,0.108c0.226,0.073,0.371,0.112,0.433,0.112c0.157,0,0.304-0.064,0.441-0.194
			c0.135-0.126,0.204-0.292,0.204-0.488C268.531,469.666,268.371,469.439,268.049,469.268z"/>
		<path style="fill:#FFFFFF;" d="M274.136,472.525c0.233-0.122,0.351-0.386,0.351-0.791c0-0.44-0.113-0.87-0.339-1.295
			c-0.222-0.424-0.565-0.77-1.017-1.034c-0.453-0.27-0.997-0.403-1.629-0.403l-0.052,0v1.13c0.425,0.001,0.762,0.137,1.023,0.412
			c0.26,0.273,0.407,0.689,0.446,1.241h-1.469v0.921h1.702C273.575,472.706,273.903,472.646,274.136,472.525L274.136,472.525z
			 M271.449,475.6c0.056,0.002,0.114,0.003,0.171,0.003c0.454,0,0.857-0.06,1.207-0.179c0.349-0.117,0.639-0.268,0.874-0.446
			c0.233-0.182,0.405-0.368,0.522-0.566c0.112-0.194,0.167-0.365,0.167-0.512c0-0.167-0.048-0.293-0.152-0.385
			c-0.105-0.092-0.238-0.139-0.406-0.139c-0.152,0-0.271,0.038-0.355,0.108c-0.202,0.189-0.368,0.34-0.494,0.449
			c-0.128,0.113-0.264,0.217-0.415,0.312c-0.15,0.097-0.307,0.169-0.465,0.213c-0.161,0.049-0.336,0.069-0.531,0.069
			c-0.042,0-0.082-0.002-0.123-0.005V475.6z M271.449,469.001c-0.468,0.005-0.893,0.083-1.278,0.233
			c-0.401,0.156-0.735,0.38-1.007,0.674c-0.276,0.295-0.484,0.643-0.624,1.055c-0.144,0.41-0.217,0.855-0.217,1.333
			c0,1.016,0.292,1.823,0.87,2.418c0.545,0.56,1.296,0.855,2.257,0.886v-1.077c-0.242-0.017-0.464-0.085-0.669-0.207
			c-0.24-0.144-0.431-0.356-0.578-0.635c-0.144-0.281-0.216-0.606-0.222-0.974h1.469v-0.921h-1.469l0,0
			c0.054-0.546,0.213-0.957,0.472-1.236c0.259-0.28,0.591-0.417,0.994-0.417h0.003V469.001z"/>
		<path style="fill:#FFFFFF;" d="M280.876,472.525c0.231-0.122,0.351-0.386,0.351-0.791c0-0.44-0.116-0.87-0.34-1.295
			c-0.222-0.424-0.564-0.77-1.013-1.034c-0.46-0.27-1.003-0.403-1.633-0.403l-0.05,0v1.13c0.423,0.001,0.76,0.137,1.022,0.412
			c0.257,0.273,0.407,0.689,0.447,1.241h-1.469v0.921h1.702C280.314,472.706,280.642,472.646,280.876,472.525L280.876,472.525z
			 M278.191,475.6c0.056,0.002,0.112,0.003,0.169,0.003c0.453,0,0.86-0.06,1.208-0.179c0.347-0.117,0.641-0.268,0.872-0.446
			c0.234-0.182,0.408-0.368,0.518-0.566c0.117-0.194,0.171-0.365,0.171-0.512c0-0.167-0.047-0.293-0.15-0.385
			c-0.104-0.092-0.238-0.139-0.406-0.139c-0.151,0-0.27,0.038-0.355,0.108c-0.203,0.189-0.368,0.34-0.493,0.449
			c-0.128,0.113-0.264,0.217-0.415,0.312c-0.153,0.097-0.307,0.169-0.469,0.213c-0.157,0.049-0.336,0.069-0.528,0.069
			c-0.041,0-0.082-0.001-0.123-0.004V475.6z M278.191,469.001c-0.467,0.005-0.896,0.083-1.28,0.233
			c-0.401,0.156-0.737,0.38-1.009,0.674c-0.273,0.295-0.481,0.643-0.622,1.055c-0.145,0.41-0.217,0.855-0.217,1.333
			c0,1.016,0.29,1.823,0.867,2.418c0.548,0.561,1.3,0.855,2.261,0.886v-1.077c-0.243-0.017-0.467-0.086-0.672-0.208
			c-0.238-0.144-0.431-0.356-0.575-0.635c-0.143-0.281-0.218-0.606-0.221-0.974h1.469v-0.921h-1.469l0,0
			c0.052-0.546,0.211-0.957,0.469-1.236c0.26-0.28,0.592-0.417,0.995-0.417h0.004V469.001z"/>
		<path style="fill:#FFFFFF;" d="M286.887,469.41c-0.42-0.257-0.882-0.385-1.379-0.385c-0.152,0-0.299,0.012-0.439,0.036v1.165
			l0.042-0.001c0.281,0,0.54,0.084,0.77,0.248c0.23,0.163,0.411,0.397,0.541,0.705c0.13,0.306,0.197,0.673,0.197,1.101
			c0,0.443-0.069,0.821-0.208,1.135l0,0c-0.137,0.313-0.32,0.546-0.552,0.704c-0.229,0.154-0.48,0.232-0.748,0.232l-0.042-0.001
			v1.223c0.138,0.021,0.285,0.031,0.439,0.031c0.385,0,0.741-0.077,1.079-0.227c0.334-0.153,0.623-0.372,0.869-0.654
			c0.245-0.283,0.44-0.632,0.58-1.05c0.14-0.418,0.21-0.878,0.21-1.376c0-0.677-0.122-1.261-0.366-1.758
			C287.635,470.044,287.306,469.669,286.887,469.41z M285.068,469.06c-0.243,0.041-0.469,0.118-0.674,0.23
			c-0.331,0.177-0.649,0.453-0.953,0.828v-0.195c0-0.296-0.071-0.519-0.218-0.677c-0.143-0.155-0.329-0.234-0.56-0.234
			c-0.233,0-0.418,0.078-0.553,0.228c-0.134,0.155-0.2,0.382-0.2,0.692v6.995c0,0.355,0.051,0.62,0.146,0.807
			c0.102,0.183,0.301,0.275,0.607,0.275c0.518,0,0.777-0.359,0.777-1.069v-2.433c0.287,0.358,0.587,0.634,0.901,0.817
			c0.209,0.124,0.451,0.206,0.726,0.248v-1.223c-0.435-0.011-0.795-0.189-1.09-0.535c-0.307-0.358-0.46-0.862-0.46-1.504
			c0-0.686,0.154-1.204,0.462-1.558c0.297-0.339,0.66-0.516,1.088-0.527V469.06z"/>
		<path style="fill:#FFFFFF;" d="M289.86,469.013c-0.238,0-0.428,0.08-0.58,0.245c-0.146,0.162-0.222,0.403-0.222,0.721v4.642
			c0,0.313,0.076,0.555,0.222,0.728c0.152,0.17,0.342,0.254,0.58,0.254c0.238,0,0.432-0.082,0.588-0.25
			c0.154-0.165,0.231-0.41,0.231-0.732v-4.688c0-0.287-0.077-0.513-0.231-0.675C290.292,469.092,290.098,469.013,289.86,469.013z"/>
		<path style="fill:#FFFFFF;" d="M289.877,466.673c-0.217,0-0.408,0.076-0.571,0.223c-0.166,0.149-0.248,0.339-0.248,0.568
			c0,0.253,0.081,0.447,0.242,0.586c0.159,0.138,0.35,0.209,0.577,0.209c0.22,0,0.408-0.071,0.566-0.21
			c0.157-0.14,0.236-0.335,0.236-0.585c0-0.257-0.082-0.454-0.244-0.591C290.275,466.74,290.09,466.673,289.877,466.673z"/>
		<path style="fill:#FFFFFF;" d="M297.218,474.042l-1.662-2.613l0.86-0.789c0.438-0.395,0.659-0.714,0.659-0.951
			c0-0.192-0.068-0.355-0.2-0.483c-0.138-0.128-0.306-0.193-0.509-0.193c-0.169,0-0.313,0.044-0.431,0.13
			c-0.122,0.086-0.29,0.251-0.517,0.486l-1.822,1.914v-3.933c0-0.329-0.075-0.581-0.221-0.751c-0.148-0.172-0.344-0.257-0.593-0.257
			c-0.255,0-0.456,0.093-0.596,0.283c-0.135,0.189-0.207,0.463-0.207,0.821v6.913c0,0.323,0.073,0.569,0.215,0.734
			c0.142,0.168,0.339,0.25,0.588,0.25c0.213,0,0.406-0.084,0.566-0.254c0.165-0.167,0.248-0.406,0.248-0.718v-1.291l0.88-0.83
			l1.428,2.353c0.181,0.277,0.329,0.471,0.436,0.58c0.106,0.109,0.26,0.16,0.458,0.16c0.226,0,0.413-0.073,0.553-0.221
			c0.142-0.151,0.214-0.352,0.214-0.61c0-0.089-0.029-0.19-0.082-0.289C297.43,474.382,297.339,474.238,297.218,474.042z"/>
		<path style="fill:#FFFFFF;" d="M299.41,473.816c-0.25,0-0.458,0.086-0.63,0.261c-0.17,0.173-0.256,0.381-0.256,0.622
			c0,0.287,0.09,0.51,0.268,0.665c0.179,0.159,0.389,0.238,0.634,0.238c0.237,0,0.444-0.079,0.623-0.241
			c0.175-0.157,0.264-0.38,0.264-0.662c0-0.243-0.089-0.454-0.264-0.626C299.87,473.903,299.658,473.816,299.41,473.816z"/>
		<path style="fill:#FFFFFF;" d="M306.796,472.889c-0.167,0-0.308,0.054-0.422,0.155c-0.114,0.104-0.219,0.246-0.318,0.427
			c-0.178,0.309-0.381,0.538-0.616,0.689c-0.231,0.15-0.51,0.225-0.835,0.225c-0.24,0-0.463-0.045-0.665-0.141
			c-0.201-0.094-0.372-0.23-0.516-0.409c-0.143-0.18-0.252-0.398-0.325-0.652c-0.075-0.256-0.114-0.537-0.114-0.842
			c0-0.646,0.147-1.161,0.439-1.534c0.294-0.374,0.682-0.562,1.158-0.562c0.333,0,0.606,0.075,0.821,0.227
			c0.218,0.147,0.424,0.375,0.622,0.673c0.108,0.158,0.209,0.269,0.299,0.339c0.09,0.068,0.202,0.104,0.338,0.104
			c0.202,0,0.377-0.068,0.524-0.203c0.143-0.135,0.214-0.3,0.214-0.492c0-0.192-0.063-0.397-0.192-0.617
			c-0.128-0.218-0.314-0.424-0.556-0.62c-0.245-0.192-0.54-0.352-0.89-0.474c-0.353-0.123-0.737-0.184-1.157-0.184
			c-0.674,0-1.259,0.139-1.746,0.419c-0.486,0.279-0.859,0.674-1.113,1.183c-0.259,0.511-0.387,1.098-0.387,1.765
			c0,0.981,0.281,1.764,0.84,2.349c0.562,0.582,1.345,0.876,2.349,0.876c0.469,0,0.893-0.065,1.268-0.192
			c0.377-0.126,0.688-0.295,0.934-0.502c0.249-0.207,0.434-0.425,0.554-0.656c0.121-0.229,0.182-0.446,0.182-0.646
			c0-0.169-0.067-0.331-0.198-0.481C307.158,472.967,306.993,472.889,306.796,472.889z"/>
		<path style="fill:#FFFFFF;" d="M313.607,469.926c-0.288-0.29-0.628-0.517-1.027-0.674c-0.398-0.16-0.842-0.238-1.329-0.239v1.199
			c0.486,0.002,0.875,0.184,1.164,0.555c0.289,0.367,0.435,0.881,0.435,1.543c0,0.651-0.146,1.163-0.435,1.532l0,0
			c-0.289,0.371-0.678,0.556-1.164,0.557v1.205c0.49-0.001,0.932-0.081,1.329-0.234c0.393-0.158,0.735-0.382,1.02-0.675
			c0.286-0.291,0.502-0.641,0.656-1.05c0.146-0.408,0.222-0.855,0.222-1.336c0-0.489-0.075-0.932-0.221-1.339
			C314.108,470.569,313.893,470.222,313.607,469.926z M311.251,469.013h-0.007c-0.483,0-0.924,0.078-1.326,0.234
			c-0.398,0.158-0.737,0.38-1.019,0.669c-0.281,0.288-0.498,0.636-0.65,1.045c-0.146,0.408-0.224,0.858-0.224,1.349
			c0,0.485,0.076,0.93,0.219,1.331c0.152,0.402,0.369,0.75,0.657,1.048c0.285,0.292,0.627,0.521,1.016,0.676
			c0.392,0.159,0.835,0.239,1.326,0.239h0.007v-1.205h-0.007c-0.324,0-0.605-0.086-0.846-0.253c-0.24-0.168-0.423-0.41-0.554-0.728
			c-0.129-0.317-0.193-0.684-0.193-1.108c0-0.428,0.066-0.803,0.197-1.125c0.131-0.321,0.314-0.563,0.556-0.727
			c0.242-0.164,0.522-0.246,0.84-0.246h0.007V469.013z"/>
		<path style="fill:#FFFFFF;" d="M323.529,469.286c-0.32-0.173-0.705-0.262-1.146-0.262c-0.38,0-0.726,0.081-1.038,0.241
			c-0.313,0.161-0.607,0.408-0.881,0.738c-0.192-0.326-0.431-0.573-0.725-0.736c-0.292-0.162-0.641-0.243-1.048-0.243
			c-0.394,0-0.747,0.078-1.071,0.241c-0.319,0.156-0.619,0.403-0.902,0.738v-0.153c0-0.261-0.074-0.466-0.222-0.616
			c-0.15-0.145-0.334-0.222-0.557-0.222c-0.227,0-0.412,0.078-0.555,0.239c-0.14,0.157-0.21,0.389-0.21,0.694v4.636
			c0,0.337,0.077,0.591,0.235,0.764c0.156,0.171,0.357,0.258,0.604,0.258c0.248,0,0.447-0.087,0.603-0.258
			c0.149-0.173,0.227-0.428,0.227-0.764v-2.188c0-0.683,0.086-1.206,0.253-1.566c0.168-0.369,0.516-0.551,1.048-0.551
			c0.263,0,0.459,0.072,0.582,0.22c0.121,0.142,0.198,0.331,0.227,0.552c0.027,0.227,0.04,0.544,0.04,0.953v2.581
			c0,0.341,0.078,0.594,0.232,0.767c0.148,0.17,0.349,0.255,0.594,0.255c0.254,0,0.454-0.085,0.611-0.255
			c0.155-0.173,0.231-0.426,0.231-0.767v-2.153c0-0.695,0.061-1.178,0.177-1.453c0.109-0.209,0.259-0.383,0.45-0.508
			c0.192-0.125,0.396-0.192,0.609-0.192c0.264,0,0.463,0.072,0.596,0.215c0.128,0.141,0.209,0.319,0.239,0.529
			c0.029,0.21,0.043,0.487,0.043,0.836v2.725c0,0.337,0.079,0.591,0.235,0.764c0.157,0.171,0.357,0.258,0.603,0.258
			c0.252,0,0.458-0.085,0.612-0.255c0.154-0.173,0.229-0.426,0.229-0.767v-3.163c0-0.629-0.068-1.091-0.206-1.385
			C324.088,469.71,323.849,469.46,323.529,469.286z"/>
		<path style="fill:#FFFFFF;" d="M245.233,471.917c-0.001-0.004-0.001-0.006-0.001-0.011
			C245.232,471.911,245.232,471.913,245.233,471.917z"/>
		<path style="fill:#FFFFFF;" d="M245.315,472.434c0.001,0,0.001,0,0.001,0c-0.03-0.147-0.055-0.294-0.073-0.438
			C245.261,472.142,245.286,472.289,245.315,472.434z"/>
		<path style="fill:#FFFFFF;" d="M245.852,473.939c-0.004-0.006-0.007-0.013-0.011-0.021
			C245.845,473.925,245.848,473.932,245.852,473.939z"/>
		<path style="fill:#FFFFFF;" d="M245.801,473.839c-0.015-0.027-0.028-0.056-0.041-0.084
			C245.773,473.784,245.786,473.811,245.801,473.839z"/>
		<path style="fill:#FFFFFF;" d="M245.466,473.014c0.079,0.25,0.175,0.492,0.285,0.724c-0.113-0.236-0.206-0.479-0.284-0.724
			H245.466z"/>
		<path style="fill:#FFFFFF;" d="M250.696,465.154l-0.076-0.259c0.299-0.063,0.523-0.329,0.523-0.646
			c0-0.364-0.296-0.659-0.66-0.659c-0.365,0-0.66,0.295-0.66,0.659c0,0.318,0.225,0.583,0.522,0.646l0.085,0.289
			c-1.021,0.14-1.834,0.539-1.834,0.539l0.144,0.441c0.617-0.206,1.153-0.331,1.639-0.383c0.476-0.051,0.834-0.073,1.126-0.073
			c0.313,0,0.544,0.025,0.809,0.069l0.075-0.476C252.389,465.301,251.658,465.076,250.696,465.154z"/>
		<path style="fill:#FFFFFF;" d="M245.413,467.661c-0.017,0.024-0.497,0.465-0.876,1.28c-0.016-0.026-0.035-0.051-0.056-0.074
			c-0.114-0.124-0.272-0.187-0.474-0.183c-0.003,0-0.007,0-0.01,0c-0.124,0-0.21-0.042-0.266-0.092
			c0.055-0.071,0.089-0.161,0.089-0.258c0-0.231-0.187-0.419-0.419-0.419c-0.23,0-0.417,0.188-0.417,0.419
			c0,0.231,0.187,0.417,0.417,0.417c0.037,0,0.071-0.006,0.105-0.012c0.102,0.114,0.265,0.213,0.504,0.209
			c0.123-0.001,0.214,0.03,0.273,0.097c0.07,0.076,0.093,0.185,0.1,0.267c-0.001,0.002-0.001,0.004-0.002,0.004
			c-0.272,0.743-0.195,1.668-0.195,1.668l0.661,0.026c0.013-0.336,0.061-0.926,0.232-1.393c0.328-0.906,0.741-1.472,0.757-1.495
			l0.003-0.005c0.024-0.031,0.047-0.06,0.071-0.089l-0.196-0.141L245.413,467.661z"/>
		<path style="fill:#FFFFFF;" d="M257.254,466.26c-0.23,0-0.418,0.186-0.418,0.417c0,0.036,0.006,0.071,0.015,0.104
			c-0.115,0.103-0.214,0.267-0.211,0.506c0.002,0.123-0.03,0.212-0.096,0.273c-0.053,0.047-0.12,0.072-0.185,0.088
			c-0.492-0.689-1.097-1.109-1.097-1.109l-0.474,0.509c0.358,0.326,0.725,0.734,1.08,1.244c0.246,0.352,0.499,0.806,0.71,1.259
			l0.64-0.304c0,0-0.292-0.722-0.704-1.369c0.071-0.025,0.143-0.064,0.207-0.12c0.125-0.113,0.187-0.273,0.183-0.473
			c-0.001-0.13,0.041-0.218,0.093-0.276c0.071,0.055,0.16,0.09,0.257,0.09c0.232,0,0.419-0.187,0.419-0.419
			C257.672,466.447,257.486,466.26,257.254,466.26z"/>
		<path style="fill:#FFFFFF;" d="M255.593,472.01c-0.88,0.429-2.33,0.996-4.237,1.262c-0.749,0.104-1.474,0.142-2.142,0.142
			c-0.869,0-1.637-0.065-2.226-0.139c-0.672-0.085-1.198-0.189-1.52-0.261c0.078,0.245,0.171,0.487,0.284,0.724
			c0.002,0.006,0.005,0.013,0.008,0.017c0.013,0.027,0.026,0.056,0.041,0.084c0.013,0.027,0.026,0.054,0.041,0.079
			c0.004,0.007,0.007,0.014,0.011,0.021c0.189,0.356,0.416,0.684,0.675,0.968c0.9,0.984,1.816,1.139,1.825,1.141l0.014,0.002
			l0.014,0.005c0.008,0.003,0.821,0.265,2.056,0.265c1.215,0,2.409-0.245,3.546-0.728c0.842-0.431,1.638-1.085,2.033-1.668
			c0.305-0.452,0.526-0.934,0.656-1.434c0.069-0.266,0.124-0.693,0.092-1.141C256.515,471.515,256.124,471.752,255.593,472.01z"/>
		<path style="fill:#FFFFFF;" d="M253.789,472.17c0.634-0.209,1.156-0.432,1.555-0.626c0.701-0.34,1.151-0.647,1.325-0.774
			c-0.173-0.643-0.651-1.65-1.089-2.279c-0.603-0.861-1.228-1.414-1.792-1.768v1.187c0.6,0,1.089,0.488,1.089,1.089
			c0,0.601-0.489,1.09-1.089,1.09V472.17L253.789,472.17z M253.789,470.09 M252.282,466.128c-0.264-0.043-0.477-0.068-0.777-0.068
			c-0.279,0-0.626,0.022-1.089,0.071c-0.465,0.049-0.982,0.171-1.583,0.373c-0.065,0.022-0.13,0.044-0.194,0.068v1.296
			c0.973,0,1.76,0.789,1.76,1.761c0,0.972-0.787,1.758-1.76,1.759v1.49c0.809,0.028,1.711,0.002,2.644-0.128
			c0.962-0.134,1.803-0.347,2.506-0.578v-2.081l0,0c-0.601,0-1.089-0.489-1.089-1.09c0-0.602,0.488-1.089,1.089-1.089v-1.187
			C253.18,466.34,252.642,466.188,252.282,466.128z M248.64,466.572c-0.765,0.283-1.456,0.699-2.01,1.212l-0.02,0.019
			c-0.089,0.082-0.275,0.254-0.488,0.525c-0.025,0.037-0.408,0.578-0.709,1.408c-0.226,0.622-0.216,1.527-0.216,1.537v0.002
			c0,0.212,0.012,0.423,0.035,0.632c0,0.005,0,0.007,0.001,0.011c0.002,0.027,0.008,0.052,0.01,0.079
			c0.018,0.144,0.043,0.291,0.074,0.438c0.298,0.076,1.601,0.382,3.323,0.443v-1.49h-0.001l0,0c-0.971,0-1.759-0.787-1.759-1.759
			c0-0.972,0.788-1.761,1.759-1.761h0.001V466.572z"/>
	</g>
</g>
</svg>
